<svg width="592" height="281" viewBox="0 0 592 281" xmlns="http://www.w3.org/2000/svg" xmlns:xlink="http://www.w3.org/1999/xlink">
  <defs>
    <path id="a" d="M.1 0H70v69.4H.1z"/>
    <path id="c" d="M0 .2h40.8v44.7H0z"/>
    <path d="M64 32a32 32 0 11-64 0 32 32 0 0164 0" id="e"/>
    <path d="M64 32a32 32 0 11-64 0 32 32 0 0164 0" id="f"/>
  </defs>
  <g fill="none" fill-rule="evenodd">
    <path d="M304.1 269.5c93.2 0 189.6 12.3 241.7 10.5 39-1.3 46.2-8.8 46.2-23.9 0-11.5-133.1-16-296.3-16-163.2 0-294.8 4.1-294.8 20 0 16 140 9.4 303.2 9.4z" fill="#CDE8E5"/>
    <path fill="#1B213F" d="M98.3 220.8l97.5 2 10.2-61.7H98.3v59.7M408 230.4l103.8-9 10.7-60.3H414.8l-6.8 69.3"/>
    <path d="M106.7 90.1s1.7 10.1 4.9 12c3.2 2-42.3 19.7-43.2 24.6-.8 5 2.6 36.2 0 38.4-2.6 2.3-5.2 10.3-14.3 12.5-9.1 2.3 0 20.6 0 20.6l7.8 14.7s23 11.2 33 11.7c10 .4-6.5-47.8 46.1-51.4 52.6-3.6 48.7 54 48.7 54l226 6.7s-4-61.2 45.6-62c49.6-1 47 51.8 47 51.8l48.6-2.3s.9-11.1 4.8-13.4c4-2.2 2.6-20 2.6-20l-6-2.8.4-9.3s3-6.3 2.1-9c-.8-2.7-15.4-21.5-108.6-35.3-17.6-2.6-115.6-46.4-115.6-46.4s-66-26.3-230 5" fill="#007D8F"/>
    <path d="M97.2 223.4c.5-.7.8-1.5 1-2.6-.2 1-.5 2-1 2.6M50 184c0-3 1-5.5 3.8-6.3-2.8.8-3.8 3.3-3.8 6.3m4.2-6.4a17.1 17.1 0 010 0" fill="#DCC32C"/>
    <path d="M98.3 220.8c2-7.8 1-25.6 13.8-37.2-12.8 11.6-11.8 29.4-13.8 37.2" fill="#1B1E15"/>
    <path d="M95 224.6c-10-.5-33-11.7-33-11.7l-8-14.7s-4-8.1-4-14.2c0-3 1-5.5 3.8-6.3h.4l3.2-1.2c.8 8.5 14 19.2 20.6 22.3 2.9 1.3 5.6 2 8.3 2 4.8 0 9.2-2.2 12.9-6.8 3.2-4 5.5-9 11-10.1l1.9-.3c-12.8 11.6-11.8 29.4-13.8 37.2-.3 1-.6 2-1.1 2.6v.1H97c-.5.7-1.1 1-1.9 1H95" fill="#006675"/>
    <path d="M564.3 188l-6-2.8.4-9.3s2.3-4.8 2.3-7.8c0 3-2.3 7.8-2.3 7.8l-.5 9.3 6.1 2.7m-3.5-21c-1-2.6-12.5-17-76.4-29.7 63.9 12.7 75.5 27.1 76.4 29.7" fill="#DCC32C"/>
    <path d="M508.3 223.7v-2 2m-23.9-86.5l-9.4-1.8 9.4 1.8M456.6 132.3l-1.4-.2 1.4.2" fill="#C0B834"/>
    <path d="M508.3 221.8c-.1-7.3-2-33.6-23-44.8 21.1 11.2 22.9 37.5 23 44.8" fill="#1B1E15"/>
    <path d="M508.3 223.7v-2c-.1-7.2-1.9-33.5-23-44.8l5-.2c3.6 0 7.3.4 10.8 1.5 6 2 9.5 5.2 12.7 10.5 3.5 5.9 6.3 8.8 12.9 10.5 2.8.8 10.7 2.6 17.6 2.6 6.2 0 11.6-1.5 11.6-6.5s-3.2-11-4.6-15.8c-1.7-5.5-2.2-10.8-7.1-14.3-7.6-5.4-18.2-8.3-27-11.3a409.2 409.2 0 00-42-11.3 23.5 23.5 0 0111.7-4.9c-2.8-.4-8-1.6-11.9-2.3l9.4 1.8c63.9 12.7 75.5 27.1 76.4 29.7.2.4.2.8.2 1.2 0 3-2.3 7.8-2.3 7.8l-.5 9.3 6.1 2.7s.2 2.9.2 6.5c0 5.3-.4 12.3-2.8 13.6-3.9 2.3-4.8 13.4-4.8 13.4l-48.6 2.3m-42-83.1l-3.5-.7 4-6 4.9.9s-3.2 2.8-5.5 5.8m-9.7-8.2a736.1 736.1 0 010-.1v.1" fill="#006675"/>
    <path d="M415.7 234V233.8m-226-6.7v-4.5 4.5" fill="#C0B834"/>
    <path d="M189.7 222.7a61.9 61.9 0 010 0M415.6 229.7c0-1.2 0-2.6.2-4.2l-.2 4.2m.4-6.7a97 97 0 000 0" fill="#1B1E15"/>
    <path d="M415.7 234l-226-6.8v-4.5a61.9 61.9 0 00-10.8-34.9c6.2 1.9 11.3 6.2 16.7 10a50.5 50.5 0 0024.7 8.3 546.6 546.6 0 0073.8 3.3H324c13.2 0 26.4 0 39.5.8 7.2.4 14.8 1.1 22.4 1.1 5.5 0 11-.4 16.2-1.6l13.8 15.8-.2 4.2v4.2m.4-11a82.5 82.5 0 01-10.6-14.2l1.5-.5.8 3.3.6.1c1.8 0 3.7-3.4 5.1-6.4l1.7-1-1 3s-1.8 5.8-1.8 6.4l4.2 4.7a95 95 0 00-.5 4.7" fill="#006675"/>
    <path d="M404.7 228.5l-1.8-.1c0-.6 3.2-58.8 3.8-67.3.6-8.3-7.4-19.7-7.5-19.9l1.5-1c.3.5 8.3 12.1 7.7 21l-3.7 67.3M276.6 226.3H275c0-.7.5-64.4 0-76.5-.6-11.8-5.1-20.7-5.1-20.8l1.5-.8c.2.4 4.7 9.3 5.3 21.6.6 12 0 75.8 0 76.5M213.8 225.5l-34.4-44.2c-13-15.6-17.4-21.8-19.2-27.7-2-6.4-2.7-10.2-2.8-10.8-1.4-4.6-.4-9.5 2.8-14.3 2.4-3.5 5.2-5.7 5.3-5.7l1 1.3c0 .1-10.4 8.3-7.4 18.3v.1s.7 4 2.7 10.6c1.8 5.6 6 11.7 19 27.1l34.3 44.2-1.3 1M111.9 184.1c-.2 0-12.3-7.8-17.9-11.8-5.9-4.1-4.3-8.2-4-8.8l14.2-40-7.1-12.8 1.5-.8 7.5 13.5-14.5 40.8c0 .1-1.5 3.2 3.4 6.7 5.6 4 17.7 11.7 17.8 11.8l-1 1.4M500 158.3c-19.6-8.7-73.7-14.7-74.3-14.8l.2-1.7c2.3.2 55 6 74.9 15l-.7 1.5" fill="#006675"/>
    <path d="M269 85.5s-75.3-3-137.8 19.2c-4.6 1.6 1.4 10.3 11.8 15.6 3 1.5 12.8 2.4 12.8 2.4l270 20s-70-56-156.7-57.2" fill="#003352"/>
    <path d="M260.3 90.3c-35.4-1.1-63.7 3.1-63.7 3.1l-6.5 10c-2.3 4.1-5.4 10.6-3 20.2l73.9 3.1-.7-36.4M173.8 101l-20.6 5.4s-12 3.6-2 7.8c10 4.2 8.3 3.6 8.3 3.6s3 2 7-3.8c3.8-5.8 7.3-13 7.3-13M279.6 90.1l4.6 39.5 89.3 8v-3.3l-6.3-1.1v-10.3l7.8-6-32.5-14.3S314.6 90 279.6 90" fill="#78C8D1"/>
    <path fill="#8389A5" d="M251.6 126.3l-6.6-.3 6.6.3M186.3 118.8"/>
    <path d="M211 124.6l-24-1a29 29 0 01-.7-4.4v-.1-.1-.1-.1c-.1-1.9 0-3.6.1-5.2v-.1-.1-.1h.1c.6-4.2 2.2-7.3 3.5-9.7l21 21M160.9 118.1c-1 0-1.4-.3-1.4-.3l-8.3-3.6c-3-1.2-4-2.4-4-3.5 0-2.5 6-4.3 6-4.3l20.6-5.4s-3.5 7.2-7.4 13c-2.3 3.4-4.3 4.1-5.5 4.1M361.5 123.8L338.7 101l3.8 1.5 28.4 12.5c.2.5.5 1 .9 1.3l-2.2-.4h-1.1c-3.2 0-6 2.3-6.6 5.6l-.4 2.2" fill="#AFDCE0"/>
    <path fill="#8389A5" d="M345 135l-9.2-.7 9.1.8M284.2 129.6l-4.5-39.5 4.5 39.5"/>
    <path d="M99.8 211s-19.6.2-24-2a73.2 73.2 0 01-18.2-14c-1.2-2.6-4.4 1.2-4.4 1.2l7.7 14.8s1.9 3 12 6.8c10 3.9 19.6 5.8 23.4 6.4 3.9.7 3.5-13.2 3.5-13.2M182.5 218a40 40 0 00-39.4-40.5 40 40 0 00-39.5 40.5 40 40 0 0039.5 40.5 40 40 0 0039.4-40.5" fill="#003352"/>
    <path d="M172.2 217.8a29.8 29.8 0 00-29.4-30.2 29.8 29.8 0 00-29.3 30.2 29.8 29.8 0 0029.3 30.1 29.8 29.8 0 0029.4-30.1" fill="#E2EDEF"/>
    <path d="M125.6 202.3c0 3.8 8.5 4.6 12.5 4.6s4.7-9.4 3.8-12.6c-.6-2.1-5.6-2.1-10.8.7-3.5 2-5.5 4.3-5.5 7.3M125.1 229.5c3.7.6 5.8-7.9 6.5-12 .7-4-8.2-6.3-11.5-5.9-2.1.3-3 5.4-1 11 1.2 4 3.1 6.4 6 6.9M152 195c-2.5.6-3.6 8.5-2.9 12.5.8 4 13.3 2.6 16.3 1 1.9-1-.8-6.2-5-9.8-3-2.7-5.5-4.6-8.4-3.8M167 219c-1.4-2.2-9-1-12.6 1-3.5 2 1.6 13.8 4 16.2 1.5 1.6 5.5-2.6 7.6-7.7 1.6-3.8 2.6-6.9 1-9.4M148.6 241.9c1.8-2-1.4-9.2-4.2-12.2-2.7-3-12.5 5.3-14.2 8.3-1 1.9 4 4.7 9.4 5.5 4 .5 7 .7 9-1.6M155.6 238.3c.6 1.5-3 3.1-3.6 1.7-.7-1.7-.6-5-.2-5.2.5-.2 3 1.9 3.8 3.5M121.5 208.4c-1.4-.6 0-4.3 1.4-3.7 1.7.6 3.9 3.1 3.7 3.6-.2.5-3.4.8-5 .1M144.4 192.9c.1-1.6 4-1.3 3.9.3-.1 1.8-1.8 4.6-2.3 4.6-.5 0-1.7-3.1-1.6-5M166.3 212c1.5-.1 1.6 4 0 4-1.7 0-4.6-1.4-4.6-2 0-.5 2.8-2 4.6-2M128.6 235c-1.2 1-3.5-2.3-2.3-3.2 1.5-1 4.7-1.6 5-1.2.3.5-1.2 3.4-2.7 4.5M138 211.3c0 1 .8 2 2 2 1 0 1.9-1 1.9-2a2 2 0 00-2-2c-1 0-2 .8-2 2M134.7 218.8c0 1 .9 2 2 2 1 0 2-1 2-2a2 2 0 00-2-2c-1.1 0-2 .8-2 2M146 212.1c0 1.2.8 2 1.9 2 1 0 2-.8 2-2a2 2 0 00-2-2c-1.1 0-2 1-2 2M146.8 219.4c0 1.1.9 2 2 2 1 0 1.9-.9 1.9-2a2 2 0 00-2-2c-1 0-2 1-2 2M140.9 224.2c0 1.2.8 2 2 2 1 0 1.9-.8 1.9-2a2 2 0 00-2-2c-1 0-2 1-2 2M502.2 221a40 40 0 00-39.5-40.6 40 40 0 00-39.4 40.6 40 40 0 0039.4 40.5 40 40 0 0039.5-40.5" fill="#003352"/>
    <path d="M491.8 220.8a29.8 29.8 0 00-29.3-30.2 29.8 29.8 0 00-29.4 30.2 29.8 29.8 0 0029.4 30.1 29.8 29.8 0 0029.3-30.1" fill="#E2EDEF"/>
    <path d="M445.2 205.3c0 3.8 8.5 4.6 12.5 4.6s4.8-9.4 3.8-12.7c-.6-2-5.6-2-10.7.8-3.6 2-5.6 4.2-5.6 7.3M444.8 232.4c3.6.7 5.8-7.8 6.5-11.9.6-4-8.3-6.3-11.6-5.9-2 .3-2.9 5.4-1 11 1.3 4 3.2 6.4 6.1 6.8M471.7 197.9c-2.5.7-3.7 8.5-3 12.6.8 4 13.4 2.6 16.4 1 1.9-1-.8-6.2-5-9.8-3-2.7-5.5-4.6-8.4-3.8M486.7 222c-1.5-2.3-9-1-12.6 1-3.5 2 1.6 13.8 4 16.2 1.5 1.6 5.5-2.6 7.6-7.7 1.6-3.8 2.6-6.9 1-9.5M468.3 244.9c1.8-2-1.4-9.2-4.2-12.2-2.8-3-12.5 5.3-14.2 8.2-1 2 4 4.8 9.3 5.5 4 .6 7.1.7 9.1-1.5M475.3 241.3c.6 1.4-3 3-3.6 1.7-.7-1.7-.7-5-.2-5.2.5-.3 3 1.8 3.8 3.5M441.2 211.4c-1.5-.6 0-4.3 1.4-3.8 1.6.7 3.8 3.2 3.6 3.7-.2.5-3.4.8-5 0M464 195.8c.2-1.6 4-1.2 4 .3-.2 1.8-1.8 4.7-2.3 4.7-.6 0-1.8-3.2-1.6-5M486 214.9c1.5 0 1.6 4 0 4-1.7 0-4.6-1.3-4.7-1.9 0-.5 2.9-2 4.7-2.1" fill="#003352"/>
    <path d="M448.3 238c-1.3 1-3.5-2.3-2.3-3.2 1.4-1 4.6-1.6 5-1.2.2.5-1.3 3.4-2.7 4.5" fill="#343D6C"/>
    <path d="M457.6 214.2c0 1.1 1 2 2 2s2-.9 2-2a2 2 0 00-2-2c-1 0-2 1-2 2M454.4 221.7c0 1.1.8 2 2 2 1 0 1.9-.9 1.9-2a2 2 0 00-2-2c-1 0-2 1-2 2M465.6 215.1c0 1.1.9 2 2 2 1 0 1.9-.9 1.9-2a2 2 0 00-2-2c-1 0-2 1-2 2M466.4 222.4c0 1.1 1 2 2 2s2-.9 2-2a2 2 0 00-2-2c-1 0-2 .9-2 2M460.5 227.2c0 1.1 1 2 2 2s2-.9 2-2a2 2 0 00-2-2c-1 0-2 1-2 2M189.2 216l226.5 10.3v7.6l-226.5-4.8V216" fill="#003352"/>
    <path d="M526.5 216c1.5-.4 20.7 1 20.7 1s2-5.2 4.7-7c2.9-1.7 1.3-6 1.3-6l-26.7-2.7s-3.7 0-3 3.6c.6 3.6 3 11 3 11" fill="#E2EDEF"/>
    <path d="M532.8 215.5c1.1-.2 14.7.7 14.7.7s1.3-3.6 3.3-4.9c2-1.2 1-4.2 1-4.2l-19-2s-2.6 0-2.1 2.6c.5 2.5 2.1 7.8 2.1 7.8M104.5 121.5s-21.3-.8-36.2 10.7c-2.6 2 .8 15 .8 15l26.4 3.8s1.5 1.5 5-6.3c3.4-7.7 25.4-5 26.6-5.3 1.2-.3 7.5-4.2 8.7-6 1.2-1.8-31.3-11.9-31.3-11.9" fill="#D95E4E"/>
    <path d="M96.6 125.7s-15.8-.5-26.8 8c-2 1.5.6 11 .6 11l19.5 2.8s1 1.1 3.7-4.6c2.5-5.7 18.8-3.7 19.7-4 .8-.2 5.5-3 6.4-4.4.9-1.3-23.1-8.8-23.1-8.8M490.7 154.4l17.6 11.2s8 7.1 22.1 7.6l14.1.4s4.8 1.6 6.1-1.5c1.3-3.2 1.8-5.2 1.8-5.2s-23.3-8.8-61.7-12.5" fill="#E2EDEF"/>
    <path d="M507.8 159.1l12.5 8s5.8 5.1 15.8 5.4l10 .3s3.5 1.2 4.4-1c1-2.3 1.2-3.7 1.2-3.7s-16.5-6.3-43.9-9" fill="#D95E4E"/>
    <path d="M336.6 85.2s2.2 5.8 15.2 11.1c13 5.4 72.1 32.3 72.1 32.3s16 9.3 31.3 3.5c0 0-10.5-2-22-6.7-35-14.2-96.6-40.2-96.6-40.2" fill="#78C8D1"/>
    <path d="M197.7 145.6c0 3.4-3.7 6.1-8.2 6.1-4.6 0-8.3-2.7-8.3-6.1 0-3.4 3.7-6.2 8.3-6.2 4.5 0 8.2 2.8 8.2 6.2" fill="#184655"/>
    <path d="M199 148h-23.7a2 2 0 01-2-2v-1.4a2 2 0 012-2H199c1 0 1.9.9 1.9 2v1.4a2 2 0 01-2 2" fill="#006675"/>
    <path d="M312.5 154.5c0 3.4-3.8 6.1-8.4 6-4.5 0-8.2-2.8-8.2-6.2 0-3.4 3.8-6 8.4-6 4.5 0 8.2 2.8 8.2 6.2" fill="#184655"/>
    <path d="M313.7 156.9l-23.7-.3a2 2 0 01-1.9-2v-1.4a2 2 0 012-2l23.6.4c1 0 2 .9 2 2v1.4a2 2 0 01-2 1.9" fill="#006675"/>
    <path d="M366.6 133.8l16 2.9c3.6.6 7-1.9 7.7-5.6l.7-4.2a7 7 0 00-5.4-8l-16-2.9a6.8 6.8 0 00-7.7 5.6l-.7 4.2a7 7 0 005.4 8" fill="#003352"/>
    <path d="M369.6 116" fill="#293765"/>
    <path d="M383.7 136.8l-1.1-.1-.7-.1c6.2-1.5 6.8-11.1-4.8-13.3-5.4-1-8.8-6.8-8.8-7.4a7 7 0 011.2.1h.1l2.2.4c.6.7 1.2 1.2 2 1.7a17.4 17.4 0 007.2 2.1l8.6 1a7 7 0 011.4 5.7l-.7 4.2a6.8 6.8 0 01-6.6 5.7" fill="#1B213F"/>
    <path d="M457.6 261.3l-4-.8a38.1 38.1 0 004 .8m-6.6-1.6" fill="#798165"/>
    <path d="M475 135.4" fill="#8D8F6F"/>
    <path d="M475 135.4l-3.3-.6 3.3.6" fill="#887030"/>
    <path d="M416.5 218.3a77.5 77.5 0 000 0" fill="#171711"/>
    <path d="M416.5 218.3l-4.2-4.7c0-.6 1.7-6.3 1.7-6.3l1-3.1 1.2-.9c1.8-1.3 3.6-2.7 5.2-4.1a77.5 77.5 0 00-5 19.1" fill="#006675"/>
    <path d="M452.4 244.3c-2-1-3-2.3-2.5-3.4.5-.8 1.6-2 3-3.4l-.5 6.8M443.7 211.8l-1.3-.1-.3-4 .2-.1h.3c1.6.7 3.8 3.2 3.6 3.7 0 .3-1.2.5-2.5.5M447.8 238.2c-1.3 0-2.9-2.6-1.8-3.4a9 9 0 014.3-1.3l.6.1c.3.5-1.2 3.4-2.6 4.5l-.5.1M448.3 133.8v-2.5l6.5 1c-2.2.7-4.3 1.2-6.5 1.5" fill="#003352"/>
    <path d="M440 249.1l-7.5-5 7.6 5 .2-.3-.2.3m-4.1-8.4l-1-.6 1 .6" fill="#2E2E42"/>
    <path d="M437.7 241.8l-1.7-1.1 1.7 1.1" fill="#211D20"/>
    <path d="M445.2 258.2l.5-8.9a1160 1160 0 01-.5 8.3v.6" fill="#541A18"/>
    <path d="M445.2 258.2v-.3l.5-8.6-.5 8.9" fill="#262330"/>
    <path d="M442.3 249.5v-.2h-.1l-1.4.4v.1c0 .1 0 .2.1.1l1.4-.4M442.3 250.6v-.1l-.1-.2-1.1.3V250.9l1.2-.3M442 251.5v-.1-.2l-.8.2v.1l.1.2.7-.2" fill="#343D6C"/>
    <path d="M436 257.4l-1.7-.1 1.7.1" fill="#A4A588"/>
    <path d="M447 262.4l-8.6-1 .1-.9-.1 1 8.6.9" fill="#541A18"/>
    <path fill="#C3B796" d="M390.6 102l.6-.2-.6.1"/>
    <path fill="#EC966C" d="M449 151"/>
    <path d="M456.6 132.3l1.7-4.2a36 36 0 010 0l-1.7 4.2" fill="#C3B796"/>
    <path fill="#BB9033" d="M456.6 132.3"/>
    <path fill="#E5742B" d="M456.5 132.4v-.1.1"/>
    <path d="M449.2 150.7l1.5-3.8-1.5 3.8m2.2-5.5l2.8-7-2.8 7" fill="#A95E2E"/>
    <path fill="#A44B2C" d="M454.2 138.2l2.3-5.8-2.3 5.8"/>
    <path fill="#894427" d="M450.7 146.9l.7-1.7-.7 1.7"/>
    <path d="M462 112.8l-.1-.1.2.1" fill="#C3B796"/>
    <g>
      <path d="M527.9 267.7H378.5a5.7 5.7 0 01-5.7-5.7h155a2.9 2.9 0 110 5.7" fill="#CDE8E5"/>
      <g transform="translate(391.8 50.1)">
        <mask id="b" fill="#fff">
          <use xlink:href="#a"/>
        </mask>
        <path d="M18.9 4.2c-.1.4-.5.7-1 .6-2.5-.4-10.5-.8-11.6 9C5 25.7 11 27.6 7.7 33.3 4.5 38.8.8 34.6.1 50.7-.6 66.8 39.7 76 46.1 64c6.4-12 12.6-6.7 17.8-9 9.5-4 7.7-24.7-5-23.6-12.6 1-18.7 1.7-17.1-7.8 1.5-9.5-2.9-17.6-8.7-21C27.6-1 20.6-1 19 4.1" fill="#1B213F" mask="url(#b)"/>
      </g>
      <path d="M380.6 253.8c-.4 0-.8.4-.8.9 0 1-.3 2.8-1.3 4-1.6 1.8-7.4 2.7-8.2 4.7-.8 2 5.9 2 8 1.5 2.3-.6 8.1-1.1 9.6-1.2 1.4 0-1.9-9.7-2.2-10-.2-.2-3.5 0-5 .1M414.5 252c-.4 0-.8.3-.9.7-.3 1.8-1.2 6.3-1.1 8.3.1 2.5 3.2 6.4 5.5 6.2 2.3 0 4.3-1.7 3.7-4.7l-2.2-9.6c0-.4-.4-.7-.8-.7l-4.2-.2z" fill="#F59265"/>
      <path d="M431.2 142.8v-.4c0-3.1 1.4-49.2-1-51.5-.9-1-8.5-3.5-13.8-4.3a63.2 63.2 0 00-13.6-.8l-.6.3c-1.3 1.6-7.7 9.7-7.7 12.9l-.6 43.5c0 .3-.1.5-.4.7-6.2 3.9-15.3 43.3-16 53.6-.8 10.6.8 59.7.8 59.7l9-1c5-7.7 7.1-48.3 8.6-53.4a388.4 388.4 0 0111.6-28.5l3.2-1.4a.9.9 0 011.2.8c-.2 6.3-1 31.8-.6 38.3.3 6.7 0 36.8 0 42.5 0 .5.3.9.8.8l7.7-.4c.3 0 .5-.2.7-.5 7-13.5 11.9-70.8 11.7-73.8-.2-3 3-8.1 3.6-16.9a66 66 0 00-4.6-20.2" fill="#114176"/>
      <path fill="#9C0" d="M399.3 143h16v-1.7h-16z"/>
      <path d="M408.8 143.7h-3.1a1 1 0 01-1-1v-.8c0-.5.4-1 1-1h3c.6 0 1 .5 1 1v.8c0 .5-.4 1-1 1" fill="#9C0"/>
      <path d="M431.1 142.6s1.4-43.8-.4-50.8a45.2 45.2 0 00-11.7-4.6c.4 3.6-3 23.9-6.3 34.3a50.8 50.8 0 00-1 21c.5 3.8 1.3 7.6 2.2 10.9.2 0 5.1 2.7 13.8 2.7l7.3-.8c-1.4-6.3-3.9-12.7-3.9-12.7M404.6 153.8c.2-.6-1.3-7.7-1.8-11.4-3-24.6-.3-56-.2-56.6l-1.4 1.6a36.7 36.7 0 00-6.7 11.4 418.2 418.2 0 010 3.4l-.6 40.8c-2 .7-4.3 5.5-6.6 12 7.4.4 16.7.6 17.3-1.2" fill="#1B3860"/>
      <path d="M439.9 149c0 6-15.9 6.6-24 3.3a.9.9 0 01-.6-.8l.9-26.2 2.6-37.2c0-.6.6-1 1-.8 2.6.5 9.1 2 12.1 3.8.3.2.4.4.4.7.2 4.5 1.2 39.8 2 47.4 1 8 5.6 7 5.6 9.8M394 87.8c-.2.1-.4.4-.4.6a619 619 0 00-3.9 39.5c0 7.1-1.1 18.8-1.5 21.8 0 .4.2.7.6.9 2 .6 8 2.5 12.8 1.7.5-.1.8-.5.7-1-.8-5-5.4-31.1-5.4-33a892 892 0 015.5-31.4c0-.5-.4-1-1-1-1.7.2-4.8.7-7.3 1.9" fill="#D95E4E"/>
      <path d="M387.7 256.2l-10.2.6V254l11.4-.6-.4 2c0 .4-.4.7-.8.8M421.5 254.3l-10.9.7v-2.8l11.4-.6z" fill="#1B3860"/>
      <path d="M387.3 258.1c-1 1.1-3.7 3.3-12 2.4-2.1.8-4.5 1.6-5 2.9-.8 2 5.9 2 8 1.5 2.3-.6 8.1-1.1 9.6-1.2.8 0 .1-3-.6-5.6M412.5 261c.1 2.5 3.2 6.4 5.5 6.2 2.3 0 4.3-1.7 3.7-4.7l-.9-4c-.3 1.8-1.1 5-3.6 4-2.7-1.3-4-4-4.4-5.2-.2 1.4-.4 2.8-.3 3.7" fill="#2C0A3C"/>
      <path d="M389.1 140l11.2-.6-.7-4.2-10.2.6-.3 4.2M431.3 141.3c1.3 0 2.4-.4 3.3-.8-.3-1.5-.4-3.8-.6-5.8H413c0 1.4 0 2.8.2 4.1h2.7c2.5 0 12 2.5 15.5 2.5" fill="#C44534"/>
      <path fill="#F48C7F" d="M431 161.7l-.4-27h2.3l.4 27z"/>
      <path d="M421.2 171.1l.7 10.7s4 3 10 3c.3-2.8.4-4.6.3-5 0-1.5.5-3.2 1.3-5.6l-12.3-3.1z" fill="#1B3860"/>
      <path d="M393.9 89.7c-.1-.8.3-2.2-.2-1.6a43.2 43.2 0 00-7.1 14.6c-4.2 14-1.4 32 1.5 33.8 2.5 1.7 25.3 1.3 30 1.2.4 0 .8-.4.8-.9l.1-8.5c0-.4-.3-.8-.7-.8-3.8-.6-20.7-3.5-22.6-5.8-.5-.6.4-3.3.2-6.4-.4-7.7-.2-22-.6-26.6" fill="#D95E4E"/>
      <path d="M394.6 120.8c0-.3 0-.7-.3-1-1-.6-2.7-2-3.5-2.9-1.1-1.3-3.3-3.1-3.4-2.2v.1c0 .7-.7 1.2-1.3.8-1-.6-2-1.1-2.3-.9-.5.4-1 3.4-.7 6.7.3 2.6 6.6 4.7 8.8 5.4.5.1 1-.2 1.1-.6l1.6-5.4z" fill="#F8AD7E"/>
      <path d="M430.8 180.6h-.9c-4.8.7-8.2-1.2-8.3-3l-.9-16.9 9.3-1c1.8-.1 3.5 1 4 2.7l4.3 13.9c.6 1.8-2.9 3.8-7.5 4.3" fill="#F48C7F"/>
      <path d="M421.5 177.2l-1.3-16.4 1.4-.2c1.9-.2 3.5 1 3.8 2.9l2.4 12.8c.8 4.2-6 5.1-6.3.9" fill="#D95E4E"/>
      <path fill="#F48C7F" d="M420.3 162.8l-26-75.3 2-.8 26 75.3z"/>
      <path d="M392.5 131a.9.9 0 01-.5-1.1l2.7-9.6c.1-.4.6-.7 1-.6 4.5 1.2 25 6.7 28 5.3 1.7-.7 5.9-8.5 7.4-16.5 1-5 0-12.8 0-16.2 0-.9 1.3-1.1 1.7-.3 2 4.2 6.2 15.4 4.8 29.2-1.6 15.4-1.4 17.3-5.9 18-9.8 1.7-30-5.3-39.2-8.2z" fill="#D95E4E"/>
      <path d="M429.2 116.2l-4.3 3.6a39.6 39.6 0 00-4.7 5.6s3.4.8 4.6.9c1.2.1 5.2-2 6.6-2 1.4.2 1-1.9-.7-1.5l-3.4.5s4-2.6 5.9-4.1c1.8-1.5.3-2.7-1.2-1.4-1.5 1.2-3.2 2-3.2 2s5.4-4.6 4.6-5.6c-.8-1-4.2 2-4.2 2" fill="#F8AD7E"/>
      <path d="M436.3 169.8c-.6.8-1.5 1.5-2.6 2-4 1.6-9.8-5-9.8-5.1l-.3.2c.2.3 4.7 5.5 8.7 5.5.5 0 1 0 1.5-.3 1.1-.4 2-1.1 2.6-1.9v-.4z" fill="#114176"/>
      <path d="M415.4 75.2s-.5 8 0 9.8c.2.5.5 1 .9 1.3 1.9 1.7-4.2 18.8-6 18.1-2-.6-5.7-12.3-6.8-16-.4-1.2.3-2.4 1.4-2.7 1.8-.5 2.5-15.2 2.5-15.2l8 4.7z" fill="#F8AD7E"/>
      <path d="M408.6 71.2l6.8 4s-.3 5.1-.2 8.1a15.7 15.7 0 01-6.1-8.7 9.3 9.3 0 01-.5-3.5z" fill="#F59265"/>
      <path d="M407.6 64.4v-.2c.2-.9 1.8-5.8 5.8-7.3 4.3-1.6 8.3-.2 9.6 5.5 1.4 5.6-1 14.6-3.7 17.3-2.6 2.6-11.7-2.1-11.7-15.3" fill="#F8AD7E"/>
      <path d="M408.8 66.1s-2-3.4-3.5-1.5c-1.3 2-.3 6.6 2.3 7 2.5.2 1.2-5.5 1.2-5.5" fill="#F59265"/>
    </g>
    <g>
      <path d="M505.4 211.2s1.7 50.7 3.7 54.4h-16.6s9-4 8.3-6.9c0 0-9.7-43.2-8.3-48.9 1.4-5.7 13 1.4 13 1.4M481 212.4l.1.5c1 5 9 44 9 47.7v4l-16.5.2s10.4-4.1 10.4-6c0-1.8-16.6-41-15.6-47.1 1-6 12.6.7 12.6.7" fill="#F8AD7E"/>
      <path d="M481 212.4s-11.7-6.8-12.6-.7c-.2 1.3.4 4.2 1.5 8 3.8.4 8 .1 12.6-.3L481 213v-.5M505.4 211.2s-11.5-7-12.9-1.4c-.3 1.3 0 4.5.5 8.6l6.6-.3c2.4 0 4.4-.1 6-.3 0-4-.2-6.6-.2-6.6" fill="#F59265"/>
      <path d="M478.8 143.7c-3.7 15.6-22.8 66.7-14.9 70.4 8.3 3.8 23.9 0 35.7 0 11.7 0 14.2-3.2 14.7-3.7s-1.8-45.2-13.2-67.4l-22.3.7z" fill="#114176"/>
      <path d="M480 261.5s-7.9 2.3-7.9 3.3 16.7.8 18.5-.3c1-.5 0-4.1-.4-4.4-1.1-1-3.9 2-6 2-2.2 0-3.1-1-4.2-.6M498.2 262s-7 2.8-7 3.8 16 .8 18.1 0c.8-.3-.3-3.3-.3-3.3-.3-.8-.5-1-1-.7-1.3.6-3.4 1.4-4.9 1.4-2.1 0-3.8-1.5-4.9-1.1" fill="#003352"/>
      <g transform="matrix(-1 0 0 1 515 69)">
        <mask id="d" fill="#fff">
          <use xlink:href="#c"/>
        </mask>
        <path d="M29.8.2s-7-.5-9.8 4.4c-2.8 4.9-7.2 5.4-9.8 8-2.6 2.5 1.2 6.9-1.8 9.8-3 3-4 2-7.1 8-4.7 9.2 4.2 21.9 17 9.2 7-7 24.6-9.6 22.3-27.2-1-7.6 0-11.2-10.8-12.2" fill="#003352" mask="url(#d)"/>
      </g>
      <path d="M486.8 101.5c.6-1 12.8 6.3 12.8 6.3 3.6-3.6 2.1-21.1-6.1-24.3-6.1-2.3-.1-9.6-1.7-10.7-4.2-2.9-8 27-5 28.7" fill="#1B213F"/>
      <path d="M475.6 124.6s.5 14.3-1.8 15.7c-2.3 1.4-13.6-11.7-16-17.8-2.5-6.1-1.1-8.5-.7-9 0 0 11 15.4 11.4 15 .4-.3.9-5.5.9-5.5l6.2 1.6z" fill="#F59265"/>
      <path d="M475.8 104.6s-1.8.3-4 4c-2.8 4.5-4 17-4 17s3.8 2.8 8 .4 0-21.4 0-21.4" fill="#184655"/>
      <path d="M490 100.2s11.6-.8 15.1 6.7a64.8 64.8 0 010 34.9c-2.8 4.7-21 8.7-31 2 0 0-3.6-34.9 2-39.5 5.7-4.7 14-4 14-4" fill="#194E61"/>
      <path d="M481.9 146.8c-2.3-7.5.2-31.1.3-32.2 0-.1.1-.2.3-.2 0 0 .2.1.2.3 0 .2-2.7 25.1-.3 32.2l-.5-.1M483.3 117.1c0 .3.2.5.4.5s.4-.2.4-.5c0-.2-.2-.4-.4-.4s-.4.2-.4.4" fill="#E2EDEF"/>
      <path d="M482.6 123.3c0 .3.1.5.4.5.2 0 .4-.2.4-.5 0-.2-.2-.4-.4-.4-.3 0-.4.2-.4.4" fill="#E2EDEF"/>
      <path d="M482.1 129.3c0 .3.2.5.5.5.2 0 .4-.2.4-.5 0-.2-.2-.4-.4-.4-.3 0-.5.2-.5.4" fill="#D9E5FF"/>
      <path d="M482 137.9c0 .2.2.4.4.4.3 0 .5-.2.5-.4 0-.3-.2-.4-.5-.4-.2 0-.4.1-.4.4" fill="#E2EDEF"/>
      <path d="M464 110.1l5.7 12a.8.8 0 01-.7 1h-6.5c-.5 0-1-.3-1.2-.7L456 111a.8.8 0 01.7-1.2l6.6-.2c.3 0 .6.1.7.4" fill="#007D8F"/>
      <path d="M469.2 122.8l-5.7-12a.8.8 0 00-.7-.4l-6.6.2-.3.1c0-.4.3-.8.8-.8l6.6-.2c.3 0 .6.1.7.4l5.7 12c.2.4 0 .9-.4 1l-.1-.3" fill="#FFF"/>
      <path d="M506.1 127s-3.7 16.3-9 16.3c-5.2 0-17.3-16.4-20.8-19.1 0 0-2-1.2-3.5-3.9-1.6-2.6-4.7-3.2-5.3-3.9-.7-.7 0-1 3-.8 3 .2 2-2.3 4.9-1.6 2.8.6 6 10 7.8 10.5 1.8.5 11.7 8.5 12.3 7.9.6-.6 2-8.6 2-8.6l8.6 3.2z" fill="#F8AD7E"/>
      <path d="M496.7 127.7l.7-4 8.7 3.3s-.4 2-1.3 4.7c-2.3-.3-5.7-1.2-8-4M460.6 121.2s3.3.4 3.3-.3c0-.8.7-2 .2-3.2-.5-1.2-3.3-.7-4-1-.7-.5-1-1-.8-1.1.2-.2 2-.6 2.7-.5.6 0 .6.7 1.4.7.8 0 0-1.4-1-2-1-.5-5.3-.3-5.3-.3l3.5 7.7z" fill="#F59265"/>
      <path d="M501 102.5s4.8.9 7.1 6.7c2.3 5.9 1.2 19.3 1.2 19.3s-9.2 2.2-13.5-2.2c0 0 .3-10.8.8-15.6a14 14 0 014.4-8.2" fill="#184655"/>
      <path d="M489 88.2l-.6 12.5s2 .4 2.4 1.7c.3 1.3-8.4 14-11.6 10.9-3.2-3.2 1.9-12.1 1.9-12.1l.5-8.9 5.5-5.2 2 1z" fill="#F8AD7E"/>
      <path d="M481.4 96.5c2.3 1.4 5 1.5 7.3-.1l.4-8.2-2-1-5.5 5.1-.2 4.2z" fill="#F59265"/>
      <path d="M481.5 72s-4.1.8-4.7 5.7c-.6 4.9.9 13.6 4.1 15.6 3.6 2.3 8.4 1.7 10.8-3.5 2.4-5.3 3.2-14.2-.7-17-4-2.9-9.5-.7-9.5-.7" fill="#F8AD7E"/>
      <path d="M485.7 70s1 1.3-1 5.8-9.2 10-9.2 10c-1-4.1-.7-8.5 1-12.4a4.8 4.8 0 013.9-2.7l5.3-.7z" fill="#003352"/>
      <path d="M491 72.8a8.8 8.8 0 00-5.6-1.5c-.2.7-.2 1.7 0 3.1.4 4.2 5.7 7.7 8 9.1.7-4.3.2-8.9-2.4-10.7" fill="#003352"/>
      <path d="M477.3 84.8s-.3-1.4-1.4-1.3c-1 .2-1.1 3.8-.1 4.2 1 .3 2.1-.6 1.5-2.9M493.2 83.7s.6-.4 1.5-.1c1 .3.2 4-.8 4.1-1 .2-1.7-1.9-.7-4" fill="#F59265"/>
      <path d="M486.8 148.6l.9.2c.5 0 1 0 1.5-.2h-2.4z" fill="#E8E1D0"/>
    </g>
    <path d="M379.6 56.1l4.6 24.2-19.6-18c-6 .8-32.3-22.6-29.7-36.5 2.6-14 0-20.6 22.8-16.3 22.8 4.2 30.2 43.4 21.9 46.6z" fill="#9C0"/>
    <g transform="translate(330)">
      <path d="M64 32a32 32 0 11-64 0 32 32 0 0164 0" fill="#9C0" fill-rule="nonzero"/>
      <use fill="#9C0" fill-rule="nonzero" xlink:href="#e"/>
      <mask id="g" fill="#fff">
        <use xlink:href="#f"/>
      </mask>
      <path d="M17.8 39.3l2.6-9.5a3 3 0 012-2L34 24.4a3 3 0 013.7 2l5.4 17a3 3 0 01-2 3.8L24.4 52a3 3 0 01-3.7-2l-3-9.2v-1.6" fill="#E9E9E9" mask="url(#g)"/>
      <path d="M19.8 32l3.7-16.5c.2-1 .9-1.7 1.8-2 1.8-.5 3.6.8 3.6 2.7l-.3 13.1-8.8 2.6z" fill="#E9E9E9" mask="url(#g)"/>
      <path d="M28.7 26s3.2 12-7 18l3.1 8 16.3-4.8L35.3 24l-6.6 2z" fill="#CCC" mask="url(#g)"/>
      <path d="M44.5 27.5l-7.7 2.3a3 3 0 01-3.8-2 3 3 0 012-3.7l7.8-2.3a3 3 0 013.8 2 3 3 0 01-2 3.7" fill="#E9E9E9" mask="url(#g)"/>
      <path d="M45 33.5l-8.7 2.6a3 3 0 01-3.8-2 3 3 0 012-3.7l8.8-2.6a3 3 0 013.8 2 3 3 0 01-2 3.7" fill="#E9E9E9" mask="url(#g)"/>
      <path d="M44.2 40l-6.1 1.8a3 3 0 01-3.8-2 3 3 0 012-3.7l6.2-1.8a3 3 0 013.8 2 3 3 0 01-2 3.7" fill="#E9E9E9" mask="url(#g)"/>
      <path d="M46.6 23.7a3 3 0 01-2 3.8l-7.8 2.3a3 3 0 01-3.8-2l13.6-4zM47 29.8a3 3 0 01-2 3.7l-8.7 2.6a3 3 0 01-3.8-2L47 29.8zM46.3 36.3a3 3 0 01-2 3.7L38 41.8a3 3 0 01-3.8-2l12-3.5z" fill="#CCC" mask="url(#g)"/>
      <path d="M43.5 46.4l-4.7 1.4a3 3 0 01-3.8-2 3 3 0 012-3.7l4.7-1.4a3 3 0 013.8 2 3 3 0 01-2 3.7" fill="#E9E9E9" mask="url(#g)"/>
      <path d="M45.5 42.7a3 3 0 01-2 3.7l-4.7 1.4a3 3 0 01-3.8-2l10.5-3z" fill="#CCC" mask="url(#g)"/>
      <path d="M28.5 53L5.8 66.5a3 3 0 01-4.1-1L-6.5 52a3 3 0 011-4.1l22.8-13.6a1 1 0 011.3.4l10.2 17c.3.5.1 1.1-.3 1.4" fill="#006675" fill-rule="nonzero" mask="url(#g)"/>
      <path d="M23.8 43.3l-5.2-8.7a1 1 0 00-1.3-.4L-5.4 47.8a3 3 0 00-1 4l4 7 26.2-15.5z" fill="#007D8F" fill-rule="nonzero" mask="url(#g)"/>
    </g>
  </g>
</svg>